<?xml version="1.0" encoding="UTF-8"?>
<!DOCTYPE svg PUBLIC "-//W3C//DTD SVG 1.1//EN" "http://www.w3.org/Graphics/SVG/1.1/DTD/svg11.dtd">
<svg xmlns="http://www.w3.org/2000/svg" version="1.1" width="212px" height="256px" style="shape-rendering:geometricPrecision; text-rendering:geometricPrecision; image-rendering:optimizeQuality; fill-rule:evenodd; clip-rule:evenodd" xmlns:xlink="http://www.w3.org/1999/xlink">
<g><path style="opacity:1" fill="#403f3f" d="M -0.5,-0.5 C 70.1667,-0.5 140.833,-0.5 211.5,-0.5C 211.5,84.8333 211.5,170.167 211.5,255.5C 140.833,255.5 70.1667,255.5 -0.5,255.5C -0.5,170.167 -0.5,84.8333 -0.5,-0.5 Z"/></g>
<g><path style="opacity:1" fill="#f9c516" d="M 199.5,129.5 C 198.833,127.833 198.167,126.167 197.5,124.5C 197.313,119.461 195.48,115.128 192,111.5C 184.533,105.277 177.533,98.6104 171,91.5C 169.317,80.0918 166.984,68.7584 164,57.5C 160.813,48.4481 155.647,40.7814 148.5,34.5C 145.295,38.3864 141.961,42.2197 138.5,46C 136.422,48.1343 134.588,47.9677 133,45.5C 132.333,41.5 132.333,37.5 133,33.5C 140.09,25.9625 148.09,19.6292 157,14.5C 154.577,20.0294 152.077,25.696 149.5,31.5C 149.833,32.1667 150.167,32.8333 150.5,33.5C 162.183,38.4295 171.683,46.0961 179,56.5C 181.452,66.8391 184.119,77.1725 187,87.5C 192.107,96.9444 196.774,106.611 201,116.5C 201.849,121.026 201.349,125.36 199.5,129.5 Z"/></g>
<g><path style="opacity:1" fill="#fac515" d="M 55.5,138.5 C 55.1667,138.5 54.8333,138.5 54.5,138.5C 54.2818,111.42 60.1151,85.7528 72,61.5C 80.4061,45.8061 93.4061,37.1394 111,35.5C 114.29,35.4276 117.456,35.9276 120.5,37C 110.016,41.6573 100.849,48.1573 93,56.5C 91.5611,58.2746 90.5611,60.2746 90,62.5C 87.7651,85.0099 92.7651,105.677 105,124.5C 110.041,129.598 115.541,134.098 121.5,138C 138.182,144.507 153.849,152.84 168.5,163C 180.049,174.253 187.882,187.753 192,203.5C 194.255,215.14 195.921,226.807 197,238.5C 191.548,208.738 176.048,185.905 150.5,170C 137.167,163.667 123.833,157.333 110.5,151C 89.8101,138.486 78.6435,119.986 77,95.5C 76.6667,89.1667 76.3333,82.8333 76,76.5C 69.2638,87.6905 64.2638,99.6905 61,112.5C 59.0608,121.132 57.2275,129.799 55.5,138.5 Z"/></g>
<g><path style="opacity:1" fill="#fac516" d="M 128.5,50.5 C 129.559,52.726 129.392,55.0594 128,57.5C 125.651,69.6188 129.484,79.1188 139.5,86C 152.805,89.3039 161.638,97.4706 166,110.5C 167.902,116.525 169.568,122.525 171,128.5C 161.537,113.045 148.037,102.879 130.5,98C 121.958,92.05 118.791,83.8834 121,73.5C 122.427,65.4513 124.927,57.7847 128.5,50.5 Z"/></g>
<g><path style="opacity:1" fill="#ac913e" d="M 197.5,124.5 C 198.167,126.167 198.833,127.833 199.5,129.5C 199.217,130.289 198.717,130.956 198,131.5C 197.503,129.19 197.337,126.857 197.5,124.5 Z"/></g>
<g><path style="opacity:1" fill="#ad9346" d="M 54.5,138.5 C 54.8333,138.5 55.1667,138.5 55.5,138.5C 55.0482,142.163 54.5482,145.83 54,149.5C 53.1901,145.642 53.3567,141.976 54.5,138.5 Z"/></g>
<g><path style="opacity:1" fill="#e6b819" d="M 101.5,203.5 C 106.959,203.103 112.292,203.603 117.5,205C 122.607,213.476 120.94,220.476 112.5,226C 105.916,227.544 99.2494,227.877 92.5,227C 94.6512,225.43 96.8179,223.93 99,222.5C 99.9845,216.925 101.151,211.425 102.5,206C 101.5,205.333 100.5,205.333 99.5,206C 97.9355,208.921 95.9355,211.421 93.5,213.5C 92.5983,210.44 93.5983,207.94 96.5,206C 98.3146,205.243 99.9812,204.41 101.5,203.5 Z"/></g>
<g><path style="opacity:1" fill="#43423e" d="M 106.5,205.5 C 113.985,204.829 117.152,208.163 116,215.5C 114.23,224.137 109.064,227.304 100.5,225C 102.041,223.421 103.208,221.587 104,219.5C 105.363,214.916 106.197,210.249 106.5,205.5 Z"/></g>
<g><path style="opacity:1" fill="#ebbb17" d="M 132.5,210.5 C 135.5,210.5 138.5,210.5 141.5,210.5C 140.556,215.486 140.056,220.486 140,225.5C 141.337,224.235 142.837,223.735 144.5,224C 140.334,228.692 136.834,228.526 134,223.5C 131.261,227.782 127.927,228.448 124,225.5C 123.333,223.5 123.333,221.5 124,219.5C 126.362,215.973 129.196,212.973 132.5,210.5 Z"/></g>
<g><path style="opacity:1" fill="#e9b919" d="M 148.5,210.5 C 150.144,210.286 151.644,210.62 153,211.5C 154.014,215.099 154.847,218.765 155.5,222.5C 159.115,219.271 161.115,215.271 161.5,210.5C 163.288,210.215 164.955,210.548 166.5,211.5C 165.091,219.991 162.091,227.825 157.5,235C 154.399,237.351 151.066,237.851 147.5,236.5C 148.538,234.236 150.038,233.902 152,235.5C 153.395,235.22 154.562,234.553 155.5,233.5C 156.982,230.239 157.815,226.905 158,223.5C 157.101,225.327 155.767,226.66 154,227.5C 153.228,227.355 152.561,227.022 152,226.5C 150.883,222.748 150.05,218.915 149.5,215C 148.352,213.274 147.185,213.441 146,215.5C 145.833,215.167 145.667,214.833 145.5,214.5C 146.524,213.148 147.524,211.815 148.5,210.5 Z"/></g>
<g><path style="opacity:1" fill="#e5b71a" d="M 63.5,210.5 C 66.1667,210.5 68.8333,210.5 71.5,210.5C 71.8841,212.665 71.2174,214.332 69.5,215.5C 68.5713,214.311 68.238,212.978 68.5,211.5C 65.4783,211.428 63.3116,212.762 62,215.5C 61.5017,218.817 61.335,222.15 61.5,225.5C 64.3903,225.722 67.057,225.055 69.5,223.5C 69.8333,223.833 70.1667,224.167 70.5,224.5C 67.7986,226.262 64.7986,227.262 61.5,227.5C 59.626,227.61 58.126,226.944 57,225.5C 55.7026,218.974 57.8692,213.974 63.5,210.5 Z"/></g>
<g><path style="opacity:1" fill="#e1b41b" d="M 81.5,210.5 C 90.1129,210.243 91.4462,213.077 85.5,219C 83.6547,220.128 81.6547,220.628 79.5,220.5C 79.2865,222.144 79.6198,223.644 80.5,225C 83.5632,224.957 86.5632,224.623 89.5,224C 85.4486,227.401 80.9486,228.234 76,226.5C 74.5783,223.97 74.245,221.303 75,218.5C 76.4785,215.172 78.6452,212.506 81.5,210.5 Z"/></g>
<g><path style="opacity:1" fill="#45413e" d="M 82.5,212.5 C 85.4429,215.931 84.4429,217.931 79.5,218.5C 79.615,216.053 80.615,214.053 82.5,212.5 Z"/></g>
<g><path style="opacity:1" fill="#45433d" d="M 132.5,212.5 C 133.833,212.5 135.167,212.5 136.5,212.5C 136.257,217.646 133.923,221.646 129.5,224.5C 127.743,219.784 128.743,215.784 132.5,212.5 Z"/></g>
<g><path style="opacity:1" fill="#eabb16" d="M 14.5,203.5 C 18.1817,203.335 21.8484,203.501 25.5,204C 29.426,204.58 30.926,206.747 30,210.5C 28.3163,212.351 26.4829,214.018 24.5,215.5C 26.2927,218.251 27.9594,221.084 29.5,224C 31.0468,224.333 32.3801,223.833 33.5,222.5C 36.2088,212.442 42.5421,208.775 52.5,211.5C 50.6385,216.109 49.9719,220.776 50.5,225.5C 51.6199,224.167 52.9532,223.667 54.5,224C 50.7296,228.795 47.5629,228.629 45,223.5C 41.3834,228.115 37.7168,228.448 34,224.5C 31.7592,227.227 29.0926,227.894 26,226.5C 24.0688,222.96 21.9021,219.626 19.5,216.5C 17.9574,219.086 16.2907,221.586 14.5,224C 15.938,224.219 17.2713,224.719 18.5,225.5C 18.2907,226.086 17.9574,226.586 17.5,227C 13.7887,227.825 10.122,227.659 6.5,226.5C 7.71403,224.931 9.3807,224.098 11.5,224C 13.362,218.854 14.6953,213.521 15.5,208C 15.1667,207.167 14.8333,206.333 14.5,205.5C 11.8785,206.952 10.2118,209.119 9.5,212C 8.55198,212.483 7.55198,212.649 6.5,212.5C 7.08293,207.587 9.7496,204.587 14.5,203.5 Z"/></g>
<g><path style="opacity:1" fill="#4a443d" d="M 42.5,212.5 C 44.1667,212.5 45.8333,212.5 47.5,212.5C 46.8622,217.756 44.1956,221.756 39.5,224.5C 38.1061,219.939 39.1061,215.939 42.5,212.5 Z"/></g>
<g><path style="opacity:1" fill="#45433d" d="M 20.5,205.5 C 23.5904,204.83 25.257,205.997 25.5,209C 25.5308,213.133 23.5308,214.966 19.5,214.5C 19.3677,211.43 19.701,208.43 20.5,205.5 Z"/></g>
</svg>
